<svg width="68" height="68" viewBox="0 0 68 68" fill="none" xmlns="http://www.w3.org/2000/svg">
<path d="M61.4263 48.0543L52.558 27.3426C49.5546 20.3159 44.0296 20.0326 40.318 26.7193L34.963 36.3809C32.243 41.2826 27.1713 41.7076 23.658 37.3159L23.0346 36.5226C19.3796 31.9326 14.223 32.4993 11.588 37.7409L6.71463 47.5159C3.28629 54.3159 8.24463 62.3343 15.838 62.3343H51.9913C59.358 62.3343 64.3163 54.8259 61.4263 48.0543Z" stroke="white" stroke-width="2" stroke-linecap="round" stroke-linejoin="round"/>
<path d="M19.748 22.668C24.4425 22.668 28.248 18.8624 28.248 14.168C28.248 9.47355 24.4425 5.66797 19.748 5.66797C15.0536 5.66797 11.248 9.47355 11.248 14.168C11.248 18.8624 15.0536 22.668 19.748 22.668Z" stroke="white" stroke-width="2" stroke-linecap="round" stroke-linejoin="round"/>
</svg>
