<svg width="56" height="51" viewBox="0 0 56 51" fill="none" xmlns="http://www.w3.org/2000/svg">
<path d="M43.7564 44.0545H34.7054H32.2681H31.7417V32.9979H35.7123C36.7192 32.9979 37.3143 31.9558 36.7192 31.2055L28.9955 21.4723C28.5035 20.8471 27.4851 20.8471 26.9931 21.4723L19.2693 31.2055C18.6743 31.9558 19.2579 32.9979 20.2763 32.9979H24.2468V44.0545H23.7205H21.2832H10.7904C4.783 43.7523 0 38.6356 0 33.0917C0 29.2672 2.27707 25.9325 5.65264 24.1297C5.34369 23.3689 5.18349 22.5561 5.18349 21.7016C5.18349 17.7937 8.65059 14.6362 12.9416 14.6362C13.8684 14.6362 14.7609 14.7821 15.5962 15.0635C18.0793 10.2698 23.4344 6.94556 29.6592 6.94556C37.7148 6.95598 44.3515 12.5729 45.1067 19.732C51.2971 20.7012 56 25.9221 56 31.8307C56 38.1458 50.5991 43.6168 43.7564 44.0545Z" fill="#D0D2D7"/>
</svg>
