<svg width="230" height="22" viewBox="0 0 230 22" fill="none" xmlns="http://www.w3.org/2000/svg">
<path d="M33.7031 17V13.304L30.0871 5.192H32.1351L34.7271 11.288L37.3191 5.192H39.3191L35.6871 13.304V17H33.7031ZM43.1545 17.08C42.4825 17.08 41.9012 17.0107 41.4105 16.872C40.9198 16.7333 40.5198 16.4987 40.2105 16.168C39.9012 15.8373 39.6718 15.3893 39.5225 14.824C39.3732 14.2587 39.2985 13.5493 39.2985 12.696C39.2985 11.8107 39.3732 11.0853 39.5225 10.52C39.6718 9.944 39.9012 9.496 40.2105 9.176C40.5305 8.84533 40.9358 8.62133 41.4265 8.504C41.9172 8.376 42.4932 8.312 43.1545 8.312C43.8372 8.312 44.4238 8.38133 44.9145 8.52C45.4052 8.648 45.8052 8.872 46.1145 9.192C46.4238 9.512 46.6532 9.96 46.8025 10.536C46.9518 11.1013 47.0265 11.8213 47.0265 12.696C47.0265 13.56 46.9518 14.28 46.8025 14.856C46.6638 15.4213 46.4398 15.8693 46.1305 16.2C45.8212 16.52 45.4212 16.7493 44.9305 16.888C44.4398 17.016 43.8478 17.08 43.1545 17.08ZM43.1545 15.496C43.4852 15.496 43.7678 15.4693 44.0025 15.416C44.2372 15.352 44.4292 15.2293 44.5785 15.048C44.7385 14.856 44.8558 14.5733 44.9305 14.2C45.0052 13.816 45.0425 13.3093 45.0425 12.68C45.0425 12.0613 45.0052 11.5653 44.9305 11.192C44.8558 10.8187 44.7385 10.5413 44.5785 10.36C44.4292 10.168 44.2372 10.0453 44.0025 9.992C43.7678 9.928 43.4852 9.896 43.1545 9.896C42.8345 9.896 42.5572 9.928 42.3225 9.992C42.0878 10.0453 41.8958 10.168 41.7465 10.36C41.5972 10.5413 41.4798 10.8187 41.3945 11.192C41.3198 11.5653 41.2825 12.0613 41.2825 12.68C41.2825 13.3093 41.3198 13.816 41.3945 14.2C41.4798 14.5733 41.5972 14.856 41.7465 15.048C41.8958 15.2293 42.0878 15.352 42.3225 15.416C42.5572 15.4693 42.8345 15.496 43.1545 15.496ZM51.2693 17.096C50.4799 17.096 49.8666 16.8773 49.4293 16.44C48.9919 15.992 48.7733 15.3413 48.7733 14.488V8.424H50.7573V13.912C50.7573 14.4773 50.8853 14.856 51.1413 15.048C51.4079 15.24 51.7653 15.336 52.2133 15.336C52.5866 15.336 52.9493 15.2773 53.3013 15.16C53.6533 15.0427 53.9839 14.872 54.2933 14.648V8.424H56.2773V17H54.6613L54.2933 16.104C53.8879 16.36 53.4239 16.5893 52.9013 16.792C52.3893 16.9947 51.8453 17.096 51.2693 17.096ZM58.2736 17V8.424H59.8096L60.2576 9.8C60.599 9.384 60.9776 9.032 61.3936 8.744C61.8096 8.456 62.3056 8.312 62.8816 8.312C62.999 8.312 63.1216 8.32267 63.2496 8.344C63.3776 8.35467 63.495 8.376 63.6016 8.408V10.424C63.4523 10.4027 63.2923 10.3867 63.1216 10.376C62.951 10.3653 62.7856 10.36 62.6256 10.36C62.295 10.36 61.991 10.3973 61.7136 10.472C61.447 10.5467 61.1963 10.664 60.9616 10.824C60.727 10.9733 60.4923 11.1653 60.2576 11.4V17H58.2736ZM71.9003 17C71.3456 17 70.8656 16.9147 70.4603 16.744C70.0656 16.5733 69.7669 16.296 69.5643 15.912C69.3616 15.5173 69.2603 15 69.2603 14.36V5.192H71.2283V14.04C71.2283 14.3387 71.2816 14.5787 71.3883 14.76C71.4949 14.9307 71.6336 15.048 71.8043 15.112C71.9856 15.176 72.1829 15.208 72.3963 15.208H76.3163V17H71.9003ZM77.9671 7.064C77.7645 7.064 77.6631 6.968 77.6631 6.776V5.32C77.6631 5.10667 77.7645 5 77.9671 5H79.4711C79.5671 5 79.6365 5.032 79.6791 5.096C79.7325 5.16 79.7591 5.23467 79.7591 5.32V6.776C79.7591 6.968 79.6631 7.064 79.4711 7.064H77.9671ZM77.7111 17V8.424H79.6951V17H77.7111ZM84.7988 17.096C84.5534 17.096 84.2708 17.0853 83.9508 17.064C83.6414 17.0533 83.3268 17.032 83.0068 17C82.6974 16.9787 82.4094 16.9467 82.1428 16.904C81.8761 16.8613 81.6574 16.8133 81.4868 16.76V15.592H85.1828C85.4494 15.592 85.6734 15.5707 85.8548 15.528C86.0468 15.4853 86.1908 15.4 86.2868 15.272C86.3828 15.144 86.4308 14.952 86.4308 14.696V14.392C86.4308 14.1253 86.3401 13.9173 86.1588 13.768C85.9881 13.608 85.6841 13.528 85.2468 13.528H83.9508C83.4494 13.528 83.0014 13.4587 82.6068 13.32C82.2228 13.1813 81.9188 12.9467 81.6948 12.616C81.4708 12.2853 81.3588 11.8373 81.3588 11.272V10.792C81.3588 10.248 81.4601 9.8 81.6628 9.448C81.8761 9.08533 82.2228 8.81333 82.7028 8.632C83.1934 8.44 83.8441 8.344 84.6548 8.344C84.9961 8.344 85.3641 8.36 85.7588 8.392C86.1534 8.424 86.5321 8.46667 86.8948 8.52C87.2574 8.56267 87.5454 8.616 87.7588 8.68V9.848H84.2708C83.8761 9.848 83.5721 9.91733 83.3588 10.056C83.1561 10.184 83.0548 10.4293 83.0548 10.792V11.096C83.0548 11.3307 83.1028 11.5067 83.1988 11.624C83.2948 11.7413 83.4388 11.8213 83.6308 11.864C83.8228 11.9067 84.0521 11.928 84.3188 11.928H85.6468C86.4894 11.928 87.1134 12.12 87.5188 12.504C87.9241 12.888 88.1268 13.432 88.1268 14.136V14.84C88.1268 15.416 87.9934 15.8693 87.7268 16.2C87.4601 16.5307 87.0761 16.7653 86.5748 16.904C86.0841 17.032 85.4921 17.096 84.7988 17.096ZM92.8936 17C92.275 17 91.7683 16.9093 91.3736 16.728C90.979 16.536 90.691 16.2213 90.5096 15.784C90.339 15.3467 90.259 14.7707 90.2696 14.056L90.3336 10.024H88.9896V8.744L90.3976 8.424L90.6856 6.024H92.2376V8.424H94.4136V10.024H92.2376V14.04C92.2376 14.3173 92.2643 14.5467 92.3176 14.728C92.371 14.8987 92.4456 15.0373 92.5416 15.144C92.6483 15.24 92.7603 15.3093 92.8776 15.352C92.995 15.3947 93.1176 15.4213 93.2456 15.432L94.3176 15.544V17H92.8936ZM96.1234 7.064C95.9207 7.064 95.8194 6.968 95.8194 6.776V5.32C95.8194 5.10667 95.9207 5 96.1234 5H97.6274C97.7234 5 97.7927 5.032 97.8354 5.096C97.8887 5.16 97.9154 5.23467 97.9154 5.32V6.776C97.9154 6.968 97.8194 7.064 97.6274 7.064H96.1234ZM95.8674 17V8.424H97.8514V17H95.8674ZM99.883 17V8.424H101.499L101.867 9.32C102.219 9.05333 102.646 8.81333 103.147 8.6C103.659 8.38667 104.187 8.28 104.731 8.28C105.403 8.28 105.931 8.41867 106.315 8.696C106.699 8.96267 106.971 9.32533 107.131 9.784C107.302 10.2427 107.387 10.744 107.387 11.288V17H105.403V11.528C105.403 11.2187 105.344 10.9573 105.227 10.744C105.11 10.5307 104.944 10.3653 104.731 10.248C104.528 10.1307 104.278 10.072 103.979 10.072C103.702 10.072 103.44 10.0987 103.195 10.152C102.96 10.2053 102.736 10.2853 102.523 10.392C102.31 10.4987 102.091 10.6267 101.867 10.776V17H99.883ZM111.559 20.952C111.015 20.952 110.53 20.872 110.103 20.712C109.677 20.5627 109.341 20.328 109.095 20.008C108.861 19.6987 108.743 19.32 108.743 18.872V18.568C108.743 18.0987 108.877 17.6987 109.143 17.368C109.41 17.048 109.751 16.8027 110.167 16.632C110.583 16.4613 111.015 16.376 111.463 16.376L112.039 17.032C111.773 17.032 111.533 17.0747 111.319 17.16C111.106 17.2453 110.935 17.3733 110.807 17.544C110.679 17.7147 110.615 17.928 110.615 18.184V18.44C110.615 18.824 110.743 19.1013 110.999 19.272C111.255 19.4533 111.618 19.544 112.087 19.544H113.831C114.322 19.544 114.706 19.448 114.983 19.256C115.271 19.0747 115.415 18.792 115.415 18.408V18.136C115.415 17.9013 115.367 17.704 115.271 17.544C115.175 17.384 115.021 17.256 114.807 17.16C114.594 17.0747 114.306 17.032 113.943 17.032H111.799C110.946 17.032 110.301 16.8667 109.863 16.536C109.437 16.2053 109.223 15.7893 109.223 15.288C109.223 14.8613 109.346 14.5093 109.591 14.232C109.847 13.9547 110.199 13.768 110.647 13.672C110.285 13.5013 109.997 13.2827 109.783 13.016C109.581 12.7493 109.437 12.4613 109.351 12.152C109.266 11.8427 109.223 11.528 109.223 11.208C109.223 10.5573 109.357 10.0293 109.623 9.624C109.89 9.208 110.279 8.904 110.791 8.712C111.303 8.50933 111.938 8.408 112.695 8.408H117.319V9.512L115.799 9.72C115.906 9.82667 116.018 9.95467 116.135 10.104C116.263 10.2533 116.37 10.4507 116.455 10.696C116.541 10.9413 116.583 11.2613 116.583 11.656C116.583 12.136 116.482 12.5733 116.279 12.968C116.087 13.3627 115.767 13.6773 115.319 13.912C114.871 14.1467 114.269 14.264 113.511 14.264H112.055C111.714 14.264 111.437 14.3173 111.223 14.424C111.01 14.5307 110.903 14.712 110.903 14.968C110.903 15.1813 110.989 15.3307 111.159 15.416C111.33 15.5013 111.511 15.544 111.703 15.544H114.247C114.898 15.544 115.447 15.6293 115.895 15.8C116.354 15.9707 116.701 16.2373 116.935 16.6C117.17 16.9627 117.287 17.4427 117.287 18.04V18.312C117.287 19.1333 117.021 19.7787 116.487 20.248C115.965 20.7173 115.159 20.952 114.071 20.952H111.559ZM112.375 12.776H113.303C113.698 12.776 114.002 12.7173 114.215 12.6C114.439 12.472 114.589 12.3067 114.663 12.104C114.749 11.8907 114.791 11.656 114.791 11.4C114.791 11.0373 114.733 10.7493 114.615 10.536C114.509 10.312 114.349 10.152 114.135 10.056C113.933 9.96 113.682 9.912 113.383 9.912H112.487C112.007 9.912 111.639 10.0187 111.383 10.232C111.138 10.4453 111.015 10.808 111.015 11.32C111.015 11.832 111.133 12.2053 111.367 12.44C111.602 12.664 111.938 12.776 112.375 12.776ZM122.932 17V5.192H124.9V17H122.932ZM130.08 17.096C129.835 17.096 129.552 17.0853 129.232 17.064C128.923 17.0533 128.608 17.032 128.288 17C127.979 16.9787 127.691 16.9467 127.424 16.904C127.157 16.8613 126.939 16.8133 126.768 16.76V15.592H130.464C130.731 15.592 130.955 15.5707 131.136 15.528C131.328 15.4853 131.472 15.4 131.568 15.272C131.664 15.144 131.712 14.952 131.712 14.696V14.392C131.712 14.1253 131.621 13.9173 131.44 13.768C131.269 13.608 130.965 13.528 130.528 13.528H129.232C128.731 13.528 128.283 13.4587 127.888 13.32C127.504 13.1813 127.2 12.9467 126.976 12.616C126.752 12.2853 126.64 11.8373 126.64 11.272V10.792C126.64 10.248 126.741 9.8 126.944 9.448C127.157 9.08533 127.504 8.81333 127.984 8.632C128.475 8.44 129.125 8.344 129.936 8.344C130.277 8.344 130.645 8.36 131.04 8.392C131.435 8.424 131.813 8.46667 132.176 8.52C132.539 8.56267 132.827 8.616 133.04 8.68V9.848H129.552C129.157 9.848 128.853 9.91733 128.64 10.056C128.437 10.184 128.336 10.4293 128.336 10.792V11.096C128.336 11.3307 128.384 11.5067 128.48 11.624C128.576 11.7413 128.72 11.8213 128.912 11.864C129.104 11.9067 129.333 11.928 129.6 11.928H130.928C131.771 11.928 132.395 12.12 132.8 12.504C133.205 12.888 133.408 13.432 133.408 14.136V14.84C133.408 15.416 133.275 15.8693 133.008 16.2C132.741 16.5307 132.357 16.7653 131.856 16.904C131.365 17.032 130.773 17.096 130.08 17.096ZM142.442 17L138.602 5.192H140.65L143.69 14.872L146.73 5.192H148.778L144.938 17H142.442ZM152.996 17.08C152.068 17.08 151.327 16.952 150.772 16.696C150.228 16.44 149.834 15.9973 149.588 15.368C149.343 14.728 149.22 13.8427 149.22 12.712C149.22 11.56 149.338 10.6693 149.572 10.04C149.807 9.4 150.196 8.952 150.74 8.696C151.284 8.44 152.02 8.312 152.948 8.312C153.77 8.312 154.426 8.39733 154.916 8.568C155.418 8.728 155.78 9.02133 156.004 9.448C156.239 9.864 156.356 10.456 156.356 11.224C156.356 11.768 156.25 12.2053 156.036 12.536C155.823 12.856 155.514 13.0853 155.108 13.224C154.714 13.3627 154.244 13.432 153.7 13.432H151.188C151.21 13.9653 151.279 14.392 151.396 14.712C151.524 15.0213 151.748 15.2453 152.068 15.384C152.399 15.5227 152.879 15.592 153.508 15.592H156.1V16.76C155.663 16.8453 155.199 16.92 154.708 16.984C154.228 17.048 153.658 17.08 152.996 17.08ZM151.172 12.232H153.508C153.882 12.232 154.154 12.1627 154.324 12.024C154.506 11.8747 154.596 11.608 154.596 11.224C154.596 10.8507 154.543 10.5573 154.436 10.344C154.33 10.1307 154.154 9.98133 153.908 9.896C153.663 9.8 153.343 9.752 152.948 9.752C152.5 9.752 152.148 9.82133 151.892 9.96C151.636 10.0987 151.45 10.3493 151.332 10.712C151.226 11.064 151.172 11.5707 151.172 12.232ZM158.117 17V8.424H159.653L160.101 9.8C160.443 9.384 160.821 9.032 161.237 8.744C161.653 8.456 162.149 8.312 162.725 8.312C162.843 8.312 162.965 8.32267 163.093 8.344C163.221 8.35467 163.339 8.376 163.445 8.408V10.424C163.296 10.4027 163.136 10.3867 162.965 10.376C162.795 10.3653 162.629 10.36 162.469 10.36C162.139 10.36 161.835 10.3973 161.557 10.472C161.291 10.5467 161.04 10.664 160.805 10.824C160.571 10.9733 160.336 11.1653 160.101 11.4V17H158.117ZM165.285 17V10.024H164.037V8.744L165.285 8.424V7.432C165.285 6.76 165.37 6.22667 165.541 5.832C165.722 5.43733 165.999 5.14933 166.373 4.968C166.746 4.78667 167.226 4.696 167.812 4.696C168.239 4.696 168.623 4.72267 168.965 4.776C169.317 4.81867 169.605 4.87733 169.829 4.952V6.376C169.647 6.36533 169.429 6.35467 169.173 6.344C168.927 6.32267 168.693 6.312 168.469 6.312C168.159 6.312 167.914 6.36533 167.733 6.472C167.562 6.57867 167.439 6.73333 167.365 6.936C167.301 7.13867 167.269 7.39467 167.269 7.704V8.424H172.036V10.024H167.269V17H165.285ZM171.077 17V8.424H173.061V17H171.077ZM171.333 7.064C171.13 7.064 171.029 6.968 171.029 6.776V5.32C171.029 5.10667 171.13 5 171.333 5H172.837C172.933 5 173.002 5.032 173.045 5.096C173.098 5.16 173.125 5.23467 173.125 5.32V6.776C173.125 6.968 173.029 7.064 172.837 7.064H171.333ZM178.59 17.08C177.662 17.08 176.921 16.952 176.366 16.696C175.822 16.44 175.427 15.9973 175.182 15.368C174.937 14.728 174.814 13.8427 174.814 12.712C174.814 11.56 174.931 10.6693 175.166 10.04C175.401 9.4 175.79 8.952 176.334 8.696C176.878 8.44 177.614 8.312 178.542 8.312C179.363 8.312 180.019 8.39733 180.51 8.568C181.011 8.728 181.374 9.02133 181.598 9.448C181.833 9.864 181.95 10.456 181.95 11.224C181.95 11.768 181.843 12.2053 181.63 12.536C181.417 12.856 181.107 13.0853 180.702 13.224C180.307 13.3627 179.838 13.432 179.294 13.432H176.782C176.803 13.9653 176.873 14.392 176.99 14.712C177.118 15.0213 177.342 15.2453 177.662 15.384C177.993 15.5227 178.473 15.592 179.102 15.592H181.694V16.76C181.257 16.8453 180.793 16.92 180.302 16.984C179.822 17.048 179.251 17.08 178.59 17.08ZM176.766 12.232H179.102C179.475 12.232 179.747 12.1627 179.918 12.024C180.099 11.8747 180.19 11.608 180.19 11.224C180.19 10.8507 180.137 10.5573 180.03 10.344C179.923 10.1307 179.747 9.98133 179.502 9.896C179.257 9.8 178.937 9.752 178.542 9.752C178.094 9.752 177.742 9.82133 177.486 9.96C177.23 10.0987 177.043 10.3493 176.926 10.712C176.819 11.064 176.766 11.5707 176.766 12.232ZM186.511 17.096C185.839 17.096 185.274 16.952 184.815 16.664C184.356 16.3653 184.01 15.9013 183.775 15.272C183.551 14.632 183.439 13.8053 183.439 12.792C183.439 11.7253 183.54 10.8667 183.743 10.216C183.946 9.55467 184.282 9.07467 184.751 8.776C185.231 8.46667 185.871 8.312 186.671 8.312C187.098 8.312 187.519 8.35467 187.935 8.44C188.351 8.52533 188.714 8.62667 189.023 8.744V4.792H191.007V17H189.359L189.023 16.168C188.852 16.328 188.623 16.4773 188.335 16.616C188.058 16.7547 187.759 16.872 187.439 16.968C187.13 17.0533 186.82 17.096 186.511 17.096ZM187.183 15.496C187.567 15.496 187.914 15.4373 188.223 15.32C188.532 15.192 188.799 15.064 189.023 14.936V10.168C188.756 10.072 188.484 9.98667 188.207 9.912C187.93 9.83733 187.626 9.8 187.295 9.8C186.847 9.8 186.484 9.88533 186.207 10.056C185.93 10.216 185.727 10.504 185.599 10.92C185.482 11.336 185.423 11.928 185.423 12.696C185.423 13.4107 185.482 13.976 185.599 14.392C185.716 14.7973 185.903 15.0853 186.159 15.256C186.426 15.416 186.767 15.496 187.183 15.496ZM197.404 17V5.192H198.988L204.364 13.624V5.192H206.348V17H204.764L199.388 8.568V17H197.404ZM211.92 17.08C211.248 17.08 210.667 17.0107 210.176 16.872C209.685 16.7333 209.285 16.4987 208.976 16.168C208.667 15.8373 208.437 15.3893 208.288 14.824C208.139 14.2587 208.064 13.5493 208.064 12.696C208.064 11.8107 208.139 11.0853 208.288 10.52C208.437 9.944 208.667 9.496 208.976 9.176C209.296 8.84533 209.701 8.62133 210.192 8.504C210.683 8.376 211.259 8.312 211.92 8.312C212.603 8.312 213.189 8.38133 213.68 8.52C214.171 8.648 214.571 8.872 214.88 9.192C215.189 9.512 215.419 9.96 215.568 10.536C215.717 11.1013 215.792 11.8213 215.792 12.696C215.792 13.56 215.717 14.28 215.568 14.856C215.429 15.4213 215.205 15.8693 214.896 16.2C214.587 16.52 214.187 16.7493 213.696 16.888C213.205 17.016 212.613 17.08 211.92 17.08ZM211.92 15.496C212.251 15.496 212.533 15.4693 212.768 15.416C213.003 15.352 213.195 15.2293 213.344 15.048C213.504 14.856 213.621 14.5733 213.696 14.2C213.771 13.816 213.808 13.3093 213.808 12.68C213.808 12.0613 213.771 11.5653 213.696 11.192C213.621 10.8187 213.504 10.5413 213.344 10.36C213.195 10.168 213.003 10.0453 212.768 9.992C212.533 9.928 212.251 9.896 211.92 9.896C211.6 9.896 211.323 9.928 211.088 9.992C210.853 10.0453 210.661 10.168 210.512 10.36C210.363 10.5413 210.245 10.8187 210.16 11.192C210.085 11.5653 210.048 12.0613 210.048 12.68C210.048 13.3093 210.085 13.816 210.16 14.2C210.245 14.5733 210.363 14.856 210.512 15.048C210.661 15.2293 210.853 15.352 211.088 15.416C211.323 15.4693 211.6 15.496 211.92 15.496ZM218.858 17L216.474 8.424H218.506L220.122 15.16L221.978 8.424H223.642L225.498 15.16L227.018 8.424H229.05L226.698 17H224.506L222.778 11.192L221.002 17H218.858Z" fill="#00CC39"/>
<path d="M9.89085 13.9057C9.70751 13.9057 9.53335 13.8323 9.40501 13.704L7.18668 11.4857C6.92085 11.2198 6.92085 10.7798 7.18668 10.514C7.45251 10.2482 7.89251 10.2482 8.15835 10.514L9.89085 12.2465L13.8325 8.30484C14.0983 8.03901 14.5383 8.03901 14.8042 8.30484C15.07 8.57068 15.07 9.01068 14.8042 9.27651L10.3767 13.704C10.2483 13.8323 10.0742 13.9057 9.89085 13.9057Z" fill="#00CC39"/>
<path d="M11 20.8529C10.4225 20.8529 9.84497 20.6604 9.39581 20.2754L7.94747 19.0287C7.80081 18.9004 7.43414 18.772 7.24164 18.772H5.66497C4.30831 18.772 3.20831 17.672 3.20831 16.3154V14.7479C3.20831 14.5554 3.07997 14.1979 2.95164 14.0512L1.71414 12.5937C0.962474 11.7045 0.962474 10.302 1.71414 9.41286L2.95164 7.95536C3.07997 7.8087 3.20831 7.4512 3.20831 7.2587V5.68203C3.20831 4.32536 4.30831 3.22536 5.66497 3.22536H7.25081C7.44331 3.22536 7.80997 3.08786 7.95664 2.9687L9.40497 1.72203C10.3033 0.952031 11.7058 0.952031 12.6041 1.72203L14.0525 2.9687C14.1991 3.09703 14.5658 3.22536 14.7583 3.22536H16.3166C17.6733 3.22536 18.7733 4.32536 18.7733 5.68203V7.24036C18.7733 7.43286 18.9108 7.79953 19.0391 7.9462L20.2858 9.39453C21.0558 10.2929 21.0558 11.6954 20.2858 12.5937L19.0391 14.042C18.9108 14.1887 18.7733 14.5554 18.7733 14.7479V16.3062C18.7733 17.6629 17.6733 18.7629 16.3166 18.7629H14.7583C14.5658 18.7629 14.1991 18.9004 14.0525 19.0195L12.6041 20.2662C12.155 20.6604 11.5775 20.8529 11 20.8529ZM5.66497 4.60036C5.06914 4.60036 4.58331 5.0862 4.58331 5.68203V7.24953C4.58331 7.77203 4.33581 8.4412 3.99664 8.83536L2.75914 10.2929C2.43831 10.6687 2.43831 11.3195 2.75914 11.6954L3.99664 13.1529C4.33581 13.5562 4.58331 14.2162 4.58331 14.7387V16.3062C4.58331 16.902 5.06914 17.3879 5.66497 17.3879H7.25081C7.78247 17.3879 8.45164 17.6354 8.85497 17.9837L10.3033 19.2304C10.6791 19.5512 11.3391 19.5512 11.715 19.2304L13.1633 17.9837C13.5666 17.6445 14.2358 17.3879 14.7675 17.3879H16.3258C16.9216 17.3879 17.4075 16.902 17.4075 16.3062V14.7479C17.4075 14.2162 17.655 13.547 18.0033 13.1437L19.25 11.6954C19.5708 11.3195 19.5708 10.6595 19.25 10.2837L18.0033 8.83536C17.655 8.43203 17.4075 7.76286 17.4075 7.2312V5.68203C17.4075 5.0862 16.9216 4.60036 16.3258 4.60036H14.7675C14.2358 4.60036 13.5666 4.35286 13.1633 4.00453L11.715 2.75786C11.3391 2.43703 10.6791 2.43703 10.3033 2.75786L8.85497 4.0137C8.45164 4.35286 7.77331 4.60036 7.25081 4.60036H5.66497Z" fill="#00CC39"/>
</svg>
