<svg width="18" height="14" viewBox="0 0 18 14" fill="none" xmlns="http://www.w3.org/2000/svg">
<path d="M0.391373 11.4056C0.758873 12.7091 1.88312 12.9476 1.95812 12.9933C3.80837 13.4973 14.1794 13.4988 16.0574 12.9933C17.3436 12.6213 17.5799 11.4806 17.6241 11.4056C18.1139 8.80007 18.1461 5.40332 17.6016 2.44682L17.6241 2.59382C17.2566 1.29032 16.1324 1.05182 16.0574 1.00607C14.2319 0.510324 3.83387 0.491574 1.95812 1.00607C0.671873 1.37882 0.435623 2.51882 0.391373 2.59382C-0.132877 5.33207 -0.159127 8.47382 0.391373 11.4056ZM7.20587 9.73832V4.26857L11.9054 7.00757L7.20587 9.73832Z" fill="#E53935"/>
</svg>
